<svg width="112" height="117" viewBox="0 0 112 117" fill="none" xmlns="http://www.w3.org/2000/svg">
<g clip-path="url(#clip0_1_143)">
<path fill-rule="evenodd" clip-rule="evenodd" d="M55.9452 106.79C81.0385 106.79 101.381 86.448 101.381 61.3547C101.381 36.2615 81.0385 15.9193 55.9452 15.9193C30.8519 15.9193 10.5098 36.2615 10.5098 61.3547C10.5098 86.448 30.8519 106.79 55.9452 106.79Z" stroke="#3AD29F" stroke-width="0.305962" stroke-dasharray="1.84 1.84"/>
<path fill-rule="evenodd" clip-rule="evenodd" d="M55.9452 116.428C86.3613 116.428 111.018 91.7708 111.018 61.3547C111.018 30.9387 86.3613 6.28154 55.9452 6.28154C25.5291 6.28154 0.872009 30.9387 0.872009 61.3547C0.872009 91.7708 25.5291 116.428 55.9452 116.428Z" stroke="#3AD29F" stroke-width="0.305962" stroke-dasharray="1.84 1.84"/>
<path d="M92.8045 78.9001C92.806 72.4882 87.9278 67.1284 81.544 66.5281C75.1603 65.9278 69.3683 70.2842 68.1745 76.584L29.992 75.5483L30.4111 82.1082C30.4111 82.1082 24.9665 94.671 53.5816 98.0182V110.716H86.6623V89.6042C90.4635 87.3784 92.8009 83.3051 92.8045 78.9001Z" fill="url(#paint0_linear_1_143)"/>
<path d="M31.7222 82.3835C31.7222 82.3835 26.5086 94.414 53.9121 97.6235V109.789H85.5929V77.5723L31.3152 76.1006L31.7222 82.3835Z" fill="#FFCBB4"/>
<path d="M47.5557 32.1797C45.8361 34.8933 42.2477 35.7087 39.5242 34.0048L22.5143 22.7959C19.8006 21.0762 18.9852 17.4879 20.6892 14.7643C22.4086 12.0545 25.9923 11.2395 28.7146 12.9393L45.7245 24.1482C48.4403 25.8659 49.2586 29.4546 47.5557 32.1797Z" fill="url(#paint1_linear_1_143)"/>
<path d="M46.6134 31.5678C45.0149 34.0901 41.6795 34.8481 39.1479 33.2644L23.3312 22.8372C20.8088 21.2387 20.0508 17.9033 21.6346 15.3717C23.2331 12.8493 26.5685 12.0913 29.1001 13.6751L44.9137 24.0962C47.4409 25.6939 48.2007 29.0341 46.6134 31.5678Z" fill="#FFCBB4"/>
<path d="M79.5793 91.2075C86.15 91.2075 91.4766 85.8808 91.4766 79.3101C91.4766 72.7394 86.15 67.4128 79.5793 67.4128C73.0085 67.4128 67.6819 72.7394 67.6819 79.3101C67.6819 85.8808 73.0085 91.2075 79.5793 91.2075Z" fill="#FFCBB4"/>
<path d="M77.4375 0.839996H31.8614C30.8264 0.839996 29.9874 1.67902 29.9874 2.71401V87.9949C29.9874 89.0299 30.8264 89.8689 31.8614 89.8689H77.4375C78.4725 89.8689 79.3115 89.0299 79.3115 87.9949V2.71401C79.3115 1.67902 78.4725 0.839996 77.4375 0.839996Z" fill="url(#paint2_linear_1_143)"/>
<path d="M76.5564 2.04396H32.7395C31.5871 2.04396 30.6528 2.97819 30.6528 4.13062V86.5813C30.6528 87.7338 31.5871 88.668 32.7395 88.668H76.5564C77.7088 88.668 78.643 87.7338 78.643 86.5813V4.13062C78.643 2.97819 77.7088 2.04396 76.5564 2.04396Z" fill="white"/>
<path d="M66.7044 4.21629C66.4175 6.11449 64.7889 7.51965 62.8691 7.52528H46.2952C44.376 7.5189 42.7482 6.11392 42.4614 4.21629H33.6803C33.1968 4.21629 32.733 4.40767 32.391 4.74941C32.049 5.09114 31.8568 5.55481 31.8568 6.0383V84.6706C31.8568 85.1541 32.0482 85.6179 32.3899 85.9599C32.7316 86.3019 33.1953 86.4941 33.6788 86.4941H75.617C76.1005 86.4941 76.5644 86.3027 76.9064 85.961C77.2484 85.6193 77.4406 85.1556 77.4406 84.6721V6.03983C77.4406 5.55634 77.2492 5.09251 76.9075 4.75049C76.5657 4.40846 76.1021 4.21629 75.6186 4.21629H66.7044Z" fill="#E9ECFF"/>
<path d="M59.7575 5.25198H49.6745C49.5055 5.25198 49.3685 5.38897 49.3685 5.55795V5.61455C49.3685 5.78353 49.5055 5.92051 49.6745 5.92051H59.7575C59.9265 5.92051 60.0635 5.78353 60.0635 5.61455V5.55795C60.0635 5.38897 59.9265 5.25198 59.7575 5.25198Z" fill="#DBDBDB"/>
<path d="M62.3352 6.0181C62.6105 6.0181 62.8336 5.79496 62.8336 5.5197C62.8336 5.24444 62.6105 5.0213 62.3352 5.0213C62.06 5.0213 61.8368 5.24444 61.8368 5.5197C61.8368 5.79496 62.06 6.0181 62.3352 6.0181Z" fill="#DBDBDB"/>
<path d="M87.2696 81.409C83.8168 82.2076 81.4472 79.9557 80.6486 76.5045L72.715 47.0449C71.9256 43.5802 74.0818 40.1283 77.5415 39.3178C81.0062 38.5284 84.4581 40.6846 85.2686 44.1444L91.7428 74.3643C92.5413 77.817 90.7209 80.6105 87.2696 81.409Z" fill="url(#paint3_linear_1_143)"/>
<path d="M84.3785 44.8655C83.7053 41.9522 80.7979 40.1362 77.8846 40.8093C74.9713 41.4824 73.1553 44.3898 73.8284 47.3031L81.1237 78.8773C81.7968 81.7906 84.7042 83.6066 87.6175 82.9335C90.5308 82.2604 92.3469 79.353 91.6737 76.4397L84.3785 44.8655Z" fill="#FFCBB4"/>
<path d="M91.4261 105.808H46.1437V116.364H91.4261V105.808Z" fill="url(#paint4_linear_1_143)"/>
<path d="M90.2023 107.032H47.3676V115.293H90.2023V107.032Z" fill="#4D8AF0"/>
<path d="M40.9531 63.7825C39.2543 66.4639 35.7088 67.2698 33.0179 65.5862L21.6101 58.2049C18.9288 56.5061 18.1229 52.9606 19.8065 50.2697C21.5053 47.5884 25.0507 46.7825 27.7416 48.4661L39.1494 55.8474C41.8308 57.5462 42.6366 61.0916 40.9531 63.7825Z" fill="url(#paint5_linear_1_143)"/>
<path d="M38.0893 79.4065C36.3753 82.1125 32.7976 82.9259 30.0822 81.227L23.016 76.0746C20.3101 74.3607 19.4966 70.783 21.1955 68.0675C22.9095 65.3616 26.4872 64.5482 29.2026 66.2471L36.2688 71.401C38.9738 73.1149 39.7871 76.6914 38.0893 79.4065Z" fill="url(#paint6_linear_1_143)"/>
<g opacity="0.5">
<path d="M54.6479 59.1151C62.2469 59.1151 68.4071 52.9549 68.4071 45.356C68.4071 37.757 62.2469 31.5968 54.6479 31.5968C47.049 31.5968 40.8888 37.757 40.8888 45.356C40.8888 52.9549 47.049 59.1151 54.6479 59.1151Z" fill="url(#paint7_linear_1_143)"/>
</g>
<path d="M54.6479 58.3058C61.7999 58.3058 67.5978 52.508 67.5978 45.356C67.5978 38.204 61.7999 32.4061 54.6479 32.4061C47.4959 32.4061 41.6981 38.204 41.6981 45.356C41.6981 52.508 47.4959 58.3058 54.6479 58.3058Z" fill="#69F0AE"/>
<path d="M49.0274 43.6273L53.883 48.079L60.7626 37.9624L63.1919 39.9863L53.883 52.1269L47.0035 44.4381L49.0274 43.6273Z" fill="white"/>
<path d="M37.5186 79.0225C35.9202 81.5449 32.5848 82.3029 30.0532 80.7191L23.4627 75.9216C20.9404 74.3231 20.1824 70.9877 21.7662 68.4561C23.3646 65.9338 26.7 65.1758 29.2316 66.7596L35.8205 71.5662C38.3378 73.1638 39.0959 76.4924 37.5186 79.0225Z" fill="#FFCBB4"/>
<path d="M40.3258 63.3771C38.7274 65.8995 35.392 66.6575 32.8604 65.0737L22.1272 58.1284C19.6049 56.5299 18.8469 53.1945 20.4306 50.6629C22.0291 48.1405 25.3645 47.3826 27.8961 48.9663L38.6293 55.9117C41.1516 57.5101 41.9096 60.8455 40.3258 63.3771Z" fill="#FFCBB4"/>
<path d="M43.9025 48.232C42.1954 50.9251 38.634 51.7343 35.9307 50.0433L21.474 40.6304C18.7809 38.9232 17.9717 35.3618 19.6627 32.6585C21.3698 29.9654 24.9313 29.1562 27.6345 30.8473L42.0912 40.2602C44.7844 41.9673 45.5936 45.5288 43.9025 48.232Z" fill="url(#paint8_linear_1_143)"/>
<path d="M43.1346 47.7425C41.5361 50.2648 38.2007 51.0228 35.6691 49.439L22.1287 40.6227C19.6064 39.0243 18.8484 35.6889 20.4322 33.1573C22.0306 30.6349 25.366 29.8769 27.8976 31.4607L41.4365 40.277C43.9594 41.875 44.7181 45.2105 43.1346 47.7425Z" fill="#FFCBB4"/>
</g>
<defs>
<linearGradient id="paint0_linear_1_143" x1="61.4005" y1="110.723" x2="61.4005" y2="66.475" gradientUnits="userSpaceOnUse">
<stop stop-color="#808080" stop-opacity="0.25"/>
<stop offset="0.54" stop-color="#808080" stop-opacity="0.12"/>
<stop offset="1" stop-color="#808080" stop-opacity="0.1"/>
</linearGradient>
<linearGradient id="paint1_linear_1_143" x1="34.1209" y1="34.8967" x2="34.1209" y2="12.0505" gradientUnits="userSpaceOnUse">
<stop stop-color="#808080" stop-opacity="0.25"/>
<stop offset="0.54" stop-color="#808080" stop-opacity="0.12"/>
<stop offset="1" stop-color="#808080" stop-opacity="0.1"/>
</linearGradient>
<linearGradient id="paint2_linear_1_143" x1="54.6495" y1="89.8674" x2="54.6495" y2="0.838468" gradientUnits="userSpaceOnUse">
<stop stop-color="#808080" stop-opacity="0.25"/>
<stop offset="0.54" stop-color="#808080" stop-opacity="0.12"/>
<stop offset="1" stop-color="#808080" stop-opacity="0.1"/>
</linearGradient>
<linearGradient id="paint3_linear_1_143" x1="82.2396" y1="81.5681" x2="82.2396" y2="39.1526" gradientUnits="userSpaceOnUse">
<stop stop-color="#808080" stop-opacity="0.25"/>
<stop offset="0.54" stop-color="#808080" stop-opacity="0.12"/>
<stop offset="1" stop-color="#808080" stop-opacity="0.1"/>
</linearGradient>
<linearGradient id="paint4_linear_1_143" x1="68.788" y1="116.361" x2="68.788" y2="105.805" gradientUnits="userSpaceOnUse">
<stop stop-color="#808080" stop-opacity="0.25"/>
<stop offset="0.54" stop-color="#808080" stop-opacity="0.12"/>
<stop offset="1" stop-color="#808080" stop-opacity="0.1"/>
</linearGradient>
<linearGradient id="paint5_linear_1_143" x1="30.3775" y1="66.4658" x2="30.3775" y2="47.588" gradientUnits="userSpaceOnUse">
<stop stop-color="#808080" stop-opacity="0.25"/>
<stop offset="0.54" stop-color="#808080" stop-opacity="0.12"/>
<stop offset="1" stop-color="#808080" stop-opacity="0.1"/>
</linearGradient>
<linearGradient id="paint6_linear_1_143" x1="29.6432" y1="82.1143" x2="29.6432" y2="65.3583" gradientUnits="userSpaceOnUse">
<stop stop-color="#808080" stop-opacity="0.25"/>
<stop offset="0.54" stop-color="#808080" stop-opacity="0.12"/>
<stop offset="1" stop-color="#808080" stop-opacity="0.1"/>
</linearGradient>
<linearGradient id="paint7_linear_1_143" x1="54.6479" y1="59.1151" x2="54.6479" y2="31.5953" gradientUnits="userSpaceOnUse">
<stop stop-color="#808080" stop-opacity="0.25"/>
<stop offset="0.54" stop-color="#808080" stop-opacity="0.12"/>
<stop offset="1" stop-color="#808080" stop-opacity="0.1"/>
</linearGradient>
<linearGradient id="paint8_linear_1_143" x1="31.7818" y1="50.9321" x2="31.7818" y2="29.9691" gradientUnits="userSpaceOnUse">
<stop stop-color="#808080" stop-opacity="0.25"/>
<stop offset="0.54" stop-color="#808080" stop-opacity="0.12"/>
<stop offset="1" stop-color="#808080" stop-opacity="0.1"/>
</linearGradient>
<clipPath id="clip0_1_143">
<rect width="111.143" height="116.127" fill="white" transform="translate(0.373596 0.839996)"/>
</clipPath>
</defs>
</svg>
